# xmcd
#
# Track frame offsets:
#	183
#	16925
#	29605
#	53180
#	62930
#	76383
#	89923
#	104730
#	120635
#	135635
#	148638
#	159493
#	180933
#	197205
#	221743
#	236248
#	262265
#	283255
#	296758
#	311658
#
# Disc length: 4385
#
# Revision: 1
# Processed by: cddbd v1.5.1PL0 Copyright (c) Steve Scherf et al.
# Submitted via: CDex 1.50Beta7
# Normalized: r0:DSETVAR2
#
DISCID=44111f14
DTITLE=Various Artist - Les Géants du Jazz Vol. 2
DYEAR=1988
DGENRE=Jazz
TTITLE0=Max Roach - Clifford Brown - I Can't Get started
TTITLE1=Charlie Parker - Cool Blues
TTITLE2=Thelonious Monk - 'Round Midnight
TTITLE3=Chet Baker - Gerry Mulligan - Speak Low
TTITLE4=Art Tatum - If I Could Be With You
TTITLE5=Miles Davis - Charlie Parker - Crazeology
TTITLE6=Illinois Jacquet - Robbins' Nest
TTITLE7=Bud Powell - Sweet And Lovely
TTITLE8=Lester Young - Jumpin' At The Woodside
TTITLE9=Billie Holiday - My Man
TTITLE10=Stan Getz - Little Pony
TTITLE11=Duke Jordan - Jor-Du
TTITLE12=Lee Konitz - All The Things You Are
TTITLE13=Charles Mingus - Back Home Blues
TTITLE14=Erroll Garner - Play, Piano, Play
TTITLE15=Milt Jackson - Jerry Old Man
TTITLE16=L.H.R. - Lil' Darlin'
TTITLE17=Jay &Kai - The Shrike
TTITLE18=Dave Brubeck - Laura
TTITLE19=John Coltrane - Simple Like
EXTD=YEAR: 1988
EXTT0=
EXTT1=
EXTT2=
EXTT3=
EXTT4=
EXTT5=
EXTT6=
EXTT7=
EXTT8=
EXTT9=
EXTT10=
EXTT11=
EXTT12=
EXTT13=
EXTT14=
EXTT15=
EXTT16=
EXTT17=
EXTT18=
EXTT19=
PLAYORDER=
